<svg width="62" height="62" viewBox="0 0 62 62" fill="none" xmlns="http://www.w3.org/2000/svg">
<path d="M9 17.1333C13.4183 17.1333 17 13.5516 17 9.1333C17 4.71502 13.4183 1.1333 9 1.1333C4.58172 1.1333 1 4.71502 1 9.1333C1 13.5516 4.58172 17.1333 9 17.1333Z" stroke="#202122" stroke-width="1.15" stroke-linecap="round" stroke-linejoin="round"/>
<path d="M9 59.4573C13.4183 59.4573 17 55.8756 17 51.4573C17 47.039 13.4183 43.4573 9 43.4573C4.58172 43.4573 1 47.039 1 51.4573C1 55.8756 4.58172 59.4573 9 59.4573Z" stroke="#202122" stroke-width="1.15" stroke-linecap="round" stroke-linejoin="round"/>
<path d="M9.00098 43.3163V17.3482" stroke="#202122" stroke-width="1.15" stroke-linecap="square" stroke-linejoin="round"/>
<path d="M35.0527 17.0002C39.471 17.0002 43.0527 13.4185 43.0527 9.00024C43.0527 4.58197 39.471 1.00024 35.0527 1.00024C30.6345 1.00024 27.0527 4.58197 27.0527 9.00024C27.0527 13.4185 30.6345 17.0002 35.0527 17.0002Z" stroke="#202122" stroke-width="1.15" stroke-linecap="round" stroke-linejoin="round"/>
<mask id="mask0_588_701" style="mask-type:alpha" maskUnits="userSpaceOnUse" x="27" y="1" width="17" height="16">
<path d="M35.0527 17C39.471 17 43.0527 13.4183 43.0527 9C43.0527 4.58172 39.471 1 35.0527 1C30.6345 1 27.0527 4.58172 27.0527 9C27.0527 13.4183 30.6345 17 35.0527 17Z" fill="#202122"/>
</mask>
<g mask="url(#mask0_588_701)">
<line x1="39.1252" y1="33.8186" x2="39.1252" y2="-29.9414" stroke="#202122" stroke-width="1.15"/>
<line x1="35.0456" y1="33.8186" x2="35.0456" y2="-29.9414" stroke="#202122" stroke-width="1.15"/>
<line x1="30.8054" y1="33.8186" x2="30.8054" y2="-29.9414" stroke="#202122" stroke-width="1.15"/>
</g>
<path d="M35.0541 17.1333C35.0541 34.5016 9.00098 28.2107 9.00098 43.408" stroke="#202122" stroke-width="1.15" stroke-linecap="round" stroke-linejoin="round"/>
</svg>
