<svg width="62" height="62" viewBox="0 0 62 62" fill="none" xmlns="http://www.w3.org/2000/svg">
<path fill-rule="evenodd" clip-rule="evenodd" d="M6.51802 37.1242L6.51806 37.1242C9.23737 39.5938 12.9302 40.9752 16.9375 40.9752H47.4062C51.0042 40.9752 53.9974 40.0229 56.1344 38.3225C58.5381 36.4083 59.85 33.5507 59.85 29.9377C59.85 23.9031 55.4922 20.3706 50.4895 19.2583L50.4836 19.257C49.917 19.1279 49.3996 18.8383 48.9932 18.4229C48.5875 18.0081 48.3096 17.4854 48.1927 16.9171C47.3349 12.8174 45.4725 9.34457 42.7579 6.73095C39.601 3.69401 35.3854 2.0061 31.005 2.02516L31 2.02518C27.1017 2.02517 23.5287 3.30523 20.6439 5.7124C18.66 7.38634 17.0817 9.48856 16.0279 11.8608L16.0272 11.8624C15.8318 12.3006 15.5349 12.6859 15.1611 12.9867C14.7878 13.2872 14.3484 13.4946 13.8792 13.592M19.9047 4.83142C23.0031 2.24509 26.8398 0.875171 31 0.875171C35.6796 0.854805 40.1831 2.65806 43.5555 5.90251C46.4535 8.69275 48.4188 12.3806 49.3188 16.6838C49.391 17.0366 49.5634 17.3612 49.8153 17.6187C50.0672 17.8762 50.3879 18.0557 50.7391 18.1357C56.0781 19.3228 61 23.1912 61 29.9377C61 33.8506 59.5656 37.0603 56.8504 39.2224C54.4645 41.1209 51.1996 42.1252 47.4062 42.1252H16.9375C12.6672 42.1252 8.69219 40.6521 5.74492 37.9756C2.68516 35.197 1 31.3439 1 27.1252C1 22.8385 2.56914 19.1424 5.5375 16.4353C7.65977 14.4982 10.4852 13.1248 13.6445 12.4662C13.9357 12.4059 14.2084 12.2773 14.4401 12.0908C14.6718 11.9044 14.8558 11.6655 14.977 11.3939C16.1018 8.86174 17.7867 6.61788 19.9047 4.83142ZM13.8784 13.5922C10.892 14.2148 8.26213 15.5054 6.31278 17.2847L6.31241 17.285C3.60037 19.7583 2.15 23.1375 2.15 27.1252C2.15 31.0273 3.70386 34.5687 6.51802 37.1242" fill="#202122"/>
<mask id="mask0_588_706" style="mask-type:alpha" maskUnits="userSpaceOnUse" x="1" y="0" width="60" height="43">
<path d="M47.4062 42.1252H16.9375C12.6672 42.1252 8.69219 40.6521 5.74492 37.9756C2.68516 35.197 1 31.3439 1 27.1252C1 22.8385 2.56914 19.1424 5.5375 16.4353C7.65977 14.4982 10.4852 13.1248 13.6445 12.4662C13.9357 12.4059 14.2084 12.2773 14.4401 12.0908C14.6718 11.9044 14.8558 11.6655 14.977 11.3939C16.1018 8.86174 17.7867 6.61788 19.9047 4.83142C23.0031 2.24509 26.8398 0.875171 31 0.875171C35.6796 0.854805 40.1831 2.65806 43.5555 5.90251C46.4535 8.69275 48.4188 12.3806 49.3188 16.6838C49.391 17.0366 49.5634 17.3612 49.8153 17.6187C50.0672 17.8762 50.3879 18.0557 50.7391 18.1357C56.0781 19.3228 61 23.1912 61 29.9377C61 33.8506 59.5656 37.0603 56.8504 39.2224C54.4645 41.1209 51.1996 42.1252 47.4062 42.1252Z" fill="#D9D9D9"/>
</mask>
<g mask="url(#mask0_588_706)">
<line x1="30.423" y1="43.2515" x2="30.423" y2="-1.50146" stroke="#202122" stroke-width="1.15"/>
<line x1="26.2292" y1="43.2515" x2="26.2292" y2="-1.50146" stroke="#202122" stroke-width="1.15"/>
<line x1="22.0358" y1="43.2515" x2="22.0358" y2="-1.50146" stroke="#202122" stroke-width="1.15"/>
<line x1="17.8425" y1="43.2515" x2="17.8425" y2="-1.50146" stroke="#202122" stroke-width="1.15"/>
<line x1="13.6491" y1="43.2515" x2="13.6491" y2="-1.50146" stroke="#202122" stroke-width="1.15"/>
<line x1="9.45576" y1="43.2515" x2="9.45576" y2="-1.50146" stroke="#202122" stroke-width="1.15"/>
<line x1="5.26191" y1="43.2515" x2="5.26192" y2="-1.50146" stroke="#202122" stroke-width="1.15"/>
<line x1="1.14307" y1="43.2515" x2="1.14307" y2="-1.50146" stroke="#202122"/>
</g>
</svg>
