<svg width="62" height="62" viewBox="0 0 62 62" fill="none" xmlns="http://www.w3.org/2000/svg">
<path d="M43.6476 26.2811H50.1314V60.4252H1.86968V26.2811H8.3535H43.6476Z" stroke="#202122" stroke-width="1.15"/>
<path d="M43.6474 25.7059V18.6471C43.6474 16.2206 43.1694 13.9412 42.2136 11.8088C41.2577 9.67647 39.9893 7.80147 38.4084 6.18382C36.8275 4.56618 34.9709 3.29779 32.8386 2.37868C30.7062 1.45956 28.4268 1 26.0003 1C23.5739 1 21.2761 1.47794 19.1069 2.43382C16.9378 3.38971 15.0628 4.65809 13.4819 6.23897C11.9011 7.81985 10.6511 9.67647 9.73195 11.8088C8.81283 13.9412 8.35327 16.2206 8.35327 18.6471V25.7059" stroke="#202122" stroke-width="1.15"/>
<mask id="mask0_588_700" style="mask-type:alpha" maskUnits="userSpaceOnUse" x="1" y="25" width="50" height="37">
<path d="M50.7055 25.7061H43.6466H8.35252H1.2937V61.0002H50.7055V25.7061Z" fill="#D9D9D9"/>
</mask>
<g mask="url(#mask0_588_700)">
<line x1="50.1325" y1="75.3838" x2="50.1325" y2="11.6238" stroke="#202122" stroke-width="1.15"/>
<line x1="46.0124" y1="75.3838" x2="46.0124" y2="11.6238" stroke="#202122" stroke-width="1.15"/>
<line x1="41.8923" y1="75.3838" x2="41.8923" y2="11.6238" stroke="#202122" stroke-width="1.15"/>
<line x1="37.7722" y1="75.3838" x2="37.7722" y2="11.6238" stroke="#202122" stroke-width="1.15"/>
<line x1="33.6521" y1="75.3838" x2="33.6521" y2="11.6238" stroke="#202122" stroke-width="1.15"/>
<line x1="29.5319" y1="75.3838" x2="29.5319" y2="11.6238" stroke="#202122" stroke-width="1.15"/>
<line x1="25.4121" y1="75.3838" x2="25.4121" y2="11.6238" stroke="#202122" stroke-width="1.15"/>
</g>
</svg>
