<svg width="62" height="62" viewBox="0 0 62 62" fill="none" xmlns="http://www.w3.org/2000/svg">
<path d="M43.6474 26.2811H50.1312V60.4252H1.86943V26.2811H8.35326H43.6474Z" stroke="black" stroke-width="1.15"/>
<path d="M43.6471 25.7059V18.6471C43.6471 16.2206 43.1692 13.9412 42.2133 11.8088C41.2574 9.67647 39.9891 7.80147 38.4082 6.18382C36.8273 4.56618 34.9707 3.29779 32.8383 2.37868C30.706 1.45956 28.4266 1 26.0001 1C23.5736 1 21.2758 1.47794 19.1067 2.43382C16.9376 3.38971 15.0626 4.65809 13.4817 6.23897C11.9008 7.81985 10.6508 9.67647 9.7317 11.8088C8.81259 13.9412 8.35303 16.2206 8.35303 18.6471V25.7059" stroke="black" stroke-width="1.15"/>
<mask id="mask0_2015_843" style="mask-type:alpha" maskUnits="userSpaceOnUse" x="1" y="25" width="50" height="36">
<path d="M50.7052 25.7061H43.6464H8.35228H1.29346V61.0002H50.7052V25.7061Z" fill="#D9D9D9"/>
</mask>
<g mask="url(#mask0_2015_843)">
<line x1="50.1325" y1="75.3838" x2="50.1325" y2="11.6238" stroke="black" stroke-width="1.15"/>
<line x1="46.0124" y1="75.3838" x2="46.0124" y2="11.6238" stroke="black" stroke-width="1.15"/>
<line x1="41.8923" y1="75.3838" x2="41.8923" y2="11.6238" stroke="black" stroke-width="1.15"/>
<line x1="37.7722" y1="75.3838" x2="37.7722" y2="11.6238" stroke="black" stroke-width="1.15"/>
<line x1="33.6521" y1="75.3838" x2="33.6521" y2="11.6238" stroke="black" stroke-width="1.15"/>
<line x1="29.5319" y1="75.3838" x2="29.5319" y2="11.6238" stroke="black" stroke-width="1.15"/>
<line x1="25.4118" y1="75.3838" x2="25.4118" y2="11.6238" stroke="black" stroke-width="1.15"/>
</g>
</svg>
